<svg xml:space="preserve" aria-label="A Custom Touch Construction Logo"
  style="fill:#ffffff;color:#ffffff;background-color:#551400;" xmlns="http://www.w3.org/2000/svg"
  viewBox="0 0 1280 1024">
  <text x="300" y="590" style="font:700 250px sans-serif;color:#ffffff;">
    ACTC
  </text>
  <path
    d="M333.19 804.13c1.91.57 3.42 1.01 5.47 1.62v-5.52c1.81.58 3.18 1.02 4.99 1.61v-5.37c1.89.57 3.39 1.02 5.14 1.55.17-1.96.31-3.54.46-5.24 1.81.45 3.32.83 5.21 1.3-.1-2.02-.17-3.54-.25-5.16 1.97.5 3.57.9 5.65 1.42-.22-1.54-.37-2.26-.4-2.99-.03-.69.06-1.39.12-2.44 1.81.65 3.25 1.16 4.93 1.76.14-1.98.24-3.56.38-5.47 1.85.58 3.34 1.04 5.22 1.63v-5.41c1.85.54 3.38.98 5.07 1.47.19-1.95.35-3.52.51-5.14 1.8.54 3.3.98 5.16 1.53v-5.54c1.87.67 3.35 1.2 5.29 1.89v-5.77c1.77.7 3.12 1.23 4.76 1.87.15-1.94.28-3.55.44-5.49 1.77.55 3.31 1.03 5.2 1.61v-5.32c1.9.45 3.42.82 5.37 1.28v-5.1l5.25 1.48v-5.39c1.79.53 3.24.97 4.51 1.34.51-1.95.42-4.01 1.4-4.91 2.36-2.18 2.92-4.99 3.52-7.76 3.69-17.25 7.27-34.53 10.99-52.33-15.93-11.61-31.97-23.32-48.02-35.02l.32-.98c1.45-.12 2.9-.33 4.35-.35 7.62-.11 15.25-.09 22.87-.28 2.88-.07 5.8-.36 8.61-.97 7-1.54 11.34-6.95 11.45-14.1-.84-.14-1.7-.42-2.57-.42-16.01-.01-32.02.04-48.02 0-2.25 0-4.12.63-5.93 1.93-6.17 4.47-12.4 8.85-18.6 13.28-34.47 24.64-68.92 49.3-103.4 73.93-5.81 4.15-11.69 8.2-17.84 12.5-.75-1.06-1.37-1.94-2.18-3.1 45.81-32.64 91.28-65.04 136.75-97.44-1.08-.92-1.9-1.1-2.73-1.1-13.72-.01-27.44-.06-41.16.1-1.84.02-3.9.76-5.44 1.8-5.06 3.4-9.9 7.11-14.86 10.65-27.81 19.81-55.63 39.59-83.43 59.41-5.94 4.23-6.53 7.51-2.31 13.39 3.99 5.57 8.14 11.04 12.24 16.54 21.74 29.23 43.49 58.45 65.24 87.67.82 1.1 1.55 2.4 2.65 3.09 1.03.65 2.53.92 3.75.78 1.12-.13 2.14-1.05 3.22-1.62 1.19.56 2.37 1.11 4.05 1.9.1-2.17.17-3.83.25-5.58 1.95.47 3.58.86 5.02 1.2 1.02-1.96-1.42-3.68.79-5.15 1.27.5 2.62 1.03 4.26 1.67.2-2.01.36-3.7.55-5.66 1.79.72 3.14 1.26 4.83 1.94.14-1.95.26-3.56.39-5.43 1.67.47 3.19.9 5 1.42.11-1.91.21-3.49.31-5.3 1.78.55 3.27 1 5.22 1.6v-5.31zm-54.04-50.86c-6.47-.1-11.5-5.23-11.46-11.68.04-6.39 5.28-11.45 11.74-11.35 6.56.1 11.55 5.15 11.51 11.64-.03 6.34-5.35 11.49-11.79 11.39zm185.61-640.98c12.11-7.07 24.3-13.97 37.63-18.58 16.55-5.73 33.48-9.26 51.09-8.35 12.28.64 21.97 6.05 27.95 16.99 2.54 4.64 4.59 9.64 6.16 14.7 2.34 7.55 4.05 15.3 6.03 22.96 1.5 5.78 2.95 6.97 8.91 7 6.25.03 12.5.02 18.74-.1 16.15-.3 32.3-.57 48.44-1.05 6.04-.18 6.86-1.26 7.53-7.4.05-.45.05-.91.12-1.37 1.63-11.04 4.08-21.87 9.1-31.93 3.45-6.92 7.8-13.06 14.96-16.73 12.22-6.25 28.96-7.1 39.54 6.93 2.11 2.79 4.52 5.36 6.84 7.98 2.98 3.38 6.59 5.16 11.27 4.94 5.93-.29 11.88-.17 17.83-.3 2.89-.06 5.81-.07 8.65-.48 5.27-.77 7.12-2.87 7.61-8.08.1-1.06.01-2.13 0-3.2-.21-13.56-.4-27.12-.63-40.68-.17-9.75-.34-19.5-.62-29.25-.17-6.07-3.03-8.82-9.12-9.03-1.37-.05-2.74.06-4.11.08-5.79.07-11.61.5-17.36.1-7.72-.55-13.57 2.28-18.37 8.11-3.29 3.99-6.71 7.91-10.35 11.58-10.18 10.27-26.32 10.5-37.03.67-1.68-1.54-3.25-3.21-4.82-4.87-5.46-5.79-12.2-9.05-20.04-9.96-20.91-2.42-41.9-3.34-62.95-2.92-14.33.29-28.59 1.14-42.73 3.78-35.13 6.55-64.51 23.15-87.96 50.14-8.55 9.84-15.55 20.7-20.6 32.74-1.33 3.17-2.73 6.37-2.87 10.91 1.79-.58 2.96-.8 3.97-1.32 2.43-1.27 4.82-2.62 7.19-4.01zM720.99 57.1c6.81-3.02 12.33-7.75 17.4-13.05 3.68-3.84 7.28-7.77 10.73-11.81 3.67-4.29 7.82-6.41 13.65-4.83 4.63 1.25 9.43 1.86 14.15 2.76-.01.48-.01.96-.02 1.44-1.87.43-3.73.87-5.6 1.3-2.37.54-4.74 1.04-7.1 1.64-3.81.97-6.71 3.19-9.28 6.21-3.54 4.15-7.18 8.33-11.36 11.78-6.91 5.7-14.89 8.57-24.76 6.46 1.02-.9 1.51-1.6 2.19-1.9zm19.19 13.62c7.87 3.81 12.25 10.35 14.22 18.55-.26.3-.52.6-.78.91-11.43-6.38-22.86-12.75-35.16-19.62 8.08-4.24 14.99-3.09 21.72.16zm-134.74 60.2c-.96-1.66-1.99-3.28-2.88-4.98-4.44-8.49-8.86-16.99-13.26-25.5-7.08-13.68-17.83-22.9-32.73-27.14-.87-.25-1.72-.6-2.56-.95-.26-.11-.45-.38-.98-.86 3.04-1.43 6.16-1.55 9.15-1.35 13.67.93 24.82 6.41 32.6 18.13 6.73 10.14 10.2 21.32 11.34 33.33.28 2.96.4 5.94.59 8.91-.43.14-.85.28-1.27.41zM491.71 76.46c13.13-17.14 30.11-29.08 50.07-36.98 16.6-6.57 33.83-10.15 51.69-10.1 14 .04 28.03.18 41.98 1.16 10.28.73 20.47 2.86 30.69 4.43 1.47.23 2.89.81 4.35 1.85-.92.17-1.83.46-2.75.48-23.45.51-46.92.55-70.34 1.56-39.18 1.7-74.61 13.78-104.65 39.78-.97.84-2.06 1.54-3.09 2.31l-.61-.54c.88-1.31 1.69-2.69 2.66-3.95zm309.26 645.53c4.08-5.29 6.45-11.08 6.24-17.71-.27-8.68-.87-17.34-1.34-26.01-.2-3.65-.42-7.3-.61-10.95-.09-1.77.5-3.2 1.93-4.4 2.32-1.96 4.52-4.07 6.74-6.15 2.73-2.55 5.85-3.76 9.62-2.96 5.06 1.08 10.18 1.93 15.19 3.22 9.83 2.53 13.77 7.39 14.15 17.52.24 6.24.06 12.5.07 18.74v4.4c.35.1.7.2 1.06.3.44-.57.97-1.09 1.31-1.71 2.65-4.97 5.25-9.97 7.89-14.94 3.78-7.13 7.71-14.19 11.34-21.4 2.42-4.82 3.35-10.02 2.77-15.89-1.87-.15-3.48-.36-5.1-.39-4.27-.07-8.53-.06-12.8-.07-21.64-.03-43.29-.05-64.93-.1-2.23-.01-4.06.58-5.83 2.07-31.83 26.88-68.48 43.47-109.38 50.8-23.74 4.25-47.58 4.3-71.46 1.14-25.92-3.43-50.46-11.35-73.77-23.08-15.31-7.7-29.5-17.14-42.65-28.13-1.93-1.61-3.83-2.74-6.52-2.73-15.39.06-30.79.05-46.18-.12-3.06-.03-4.7.85-5.71 3.85-2.33 6.87-7.33 10.26-14.61 10.08-7.62-.19-15.23-.48-22.85-.7-.75-.02-1.51.12-2.27.18.18 1.13.69 1.44 1.2 1.78 9.26 6.15 18.63 12.16 27.76 18.5 10.82 7.52 22.31 9.11 34.75 5.01 7.52-2.48 15.17-4.59 22.61-7.28 4.09-1.48 7.26-1 10.42 1.94 1.76 1.64 3.9 2.94 6.05 4.05 4.82 2.47 7.28 6.44 7.57 11.67.24 4.4.29 8.84.03 13.24-.37 6.15-3.63 10.6-9.13 13.25a42.84 42.84 0 0 1-8.14 2.96c-5.46 1.37-11 2.42-16.5 3.65-.94.21-1.83.63-3 1.05.63.46.85.73 1.11.8 13.7 3.6 27.39 7.22 41.1 10.77 8.67 2.25 16.61.48 23.86-4.64 5.98-4.22 11.93-8.47 17.86-12.74 2.72-1.96 5.36-4.02 8.06-6.02 2.24-1.65 4.58-2.01 7.31-1.06 2.86 1 5.84 1.77 8.84 2.24 4.74.75 7.69 3.43 9.3 7.76 1.48 4 3.03 7.99 4.22 12.07 2.54 8.68.52 14.52-6.97 19.88-5.32 3.81-10.87 7.3-16.3 10.97-1.04.7-1.99 1.52-3.37 2.58 1.11.28 1.52.46 1.93.48 12.53.5 24.94-.79 37.36-2.29 12.53-1.51 21.97-7.31 28.68-18 4.53-7.22 9.6-14.1 14.31-21.22 1.85-2.8 4.15-4.24 7.57-4.14 2.58.08 5.19-.08 7.74-.45 4.1-.59 7.59.52 10.47 3.36 2.27 2.24 4.45 4.61 6.41 7.13 8.68 11.14 8.87 18.31.6 29.75-3.57 4.94-7.51 9.6-11.25 14.41-.5.64-.81 1.41-1.69 2.98 2.42-.78 4.02-1.12 5.47-1.8 12.56-5.86 25.16-11.63 37.59-17.75 7.32-3.6 12.06-9.7 14.3-17.56 2.75-9.66 5.56-19.32 7.87-29.09 1.19-5.04 3.1-8.84 8.51-10.05.72-.16 1.38-.63 2.03-1.04 4.73-2.97 9.63-2.81 14.36-.32 4.3 2.26 8.51 4.77 12.47 7.6 6.78 4.84 9.35 11.58 7.16 19.66-1.75 6.45-4.07 12.74-6.15 19.1-.46 1.39-.99 2.75-1.49 4.12 2.83-1.34 5.07-3.09 7.28-4.87 10.1-8.17 19.55-16.97 27.53-27.3zm11.8-393.97c1.11-6.07 4.61-10.25 10.89-11.45 4.03-.77 8.13-1.22 12.2-1.71 4.94-.6 9.9-1.09 14.84-1.62-2.09-1.96-4.34-3.13-6.54-4.39-9.02-5.16-18.5-9.21-28.36-12.54-11.28-3.81-22.07-3.92-32.51 2.4-1.69 1.02-3.54 1.77-5.29 2.71-6.31 3.38-12.63 6.74-18.9 10.2-2.49 1.38-4.74 1.43-7.32.06-3.49-1.86-7.13-3.44-10.78-4.98-2.9-1.23-4.72-3.15-5.25-6.34-.9-5.41-1.95-10.79-2.91-16.18-1.12-6.28 1.22-11.03 6.48-14.42 1.66-1.07 3.4-2.05 5.16-2.94 5.31-2.67 10.65-5.26 15.96-7.92 1.12-.56 2.65-.87 2.57-3.17-5.8-.41-11.51-.96-17.24-1.18-8.83-.34-17.67-.52-26.51-.66-7.67-.12-14.38 2.35-19.79 7.91-6.8 6.99-13.53 14.05-20.32 21.05-1.37 1.41-2.76 2.89-4.38 3.97-3.08 2.03-6.75 2.05-8.82-.45-3.43-4.16-7.18-8.22-8.77-13.61-5.96-5.52-6.67-16.47.11-22.86-.03.05-.07.1-.1.14 0 0 .04-.05.07-.1.04-.05.07-.1.07-.1 0 7.68.01 15.35.01 23.03 3.56 3.18 5.65 7.84 10.29 10.79.15-2.33.35-4.12.37-5.92.1-12.63.15-25.27.21-37.9 0-.09-.19-.2-.31-.27-.13-.07-.28-.11-.47-.18-2.36 2.07-4.73 4.16-7.11 6.25l-.04.04.04-.04c3.43-4.32 6.85-8.65 10.71-13.51-1.31.07-1.88.02-2.42.13-11.81 2.48-23.17 6.45-34.41 10.72-8.57 3.26-15.11 9.1-19.26 17.34-4.05 8.02-8.01 16.09-11.81 24.23-1.5 3.21-3.66 5.05-7.15 5.62-4.51.74-8.99 1.64-13.46 2.56-2.28.47-4.21-.04-5.91-1.59-3.49-3.18-7.11-6.23-10.46-9.55-6.88-6.83-7.65-11.74-3.32-20.54 2.89-5.88 5.98-11.65 8.95-17.49.51-1 .88-2.08 1.63-3.87-1.57.58-2.42.76-3.14 1.17-8.95 5.22-17.94 10.36-26.8 15.73-13.21 8-20.07 19.99-21.6 35.22-.61 6.06-1.35 12.12-1.86 18.19-.32 3.81-1.93 6.59-5.3 8.47-4.12 2.3-8.2 4.7-12.23 7.15-2.32 1.41-4.51 1.39-6.93.26-4.27-2-8.66-3.76-12.92-5.79-7.32-3.48-9.68-7.59-8.73-15.75 1.01-8.59 2.34-17.14 3.57-25.97-.75.54-1.57.91-2.1 1.53-7.3 8.59-14.7 17.11-21.8 25.87-4.67 5.77-7.49 12.49-8.78 19.86-1.2 6.88-.58 13.63.84 20.41 1.67 7.99 4.76 15.71 4.58 24.27 1.05.06 2.08.17 3.12.18 9.3.02 18.6-.15 27.89.13 3.97.12 6.92-1.18 9.88-3.67 20.73-17.43 43.94-30.63 69.39-39.85 39.12-14.16 79.18-17.77 120.14-10.28 40.89 7.47 77.37 24.43 109.1 51.36 2.16 1.84 4.4 2.36 7.1 2.35 29.72-.03 59.44.02 89.16.04.7 0 1.4-.06 2.71-.12-.87-1.18-1.3-1.93-1.88-2.54-4.65-4.92-10.33-7.95-17-9.15-7.01-1.26-13.97-.57-20.91.57-6.76 1.12-13.52 2.27-20.27 3.47-2.93.52-5.36-.15-7.51-2.26-2.39-2.35-4.87-4.61-7.4-6.81-2.79-2.42-3.8-5.46-3.35-9.01.75-5.56 1.38-11.17 2.39-16.7zm-152.61-82.21-.08.08c-.85 1.22-1.7 2.43-2.55 3.65.85-1.22 1.7-2.43 2.55-3.65.01 0 .04-.03.08-.08zm-2.97 26.9c0 .01.01.03.01.04.05.05.11.1.16.15l-.17-.19zm462.31-122.93c-3.7-16.37-21.69-29.4-40.72-25.77-10.72 2.04-20.06 7.04-28.89 13.16-14.01 9.7-25.9 21.73-37.08 34.47-22.85 26.04-48.56 48.76-77.79 67.45-3.51 2.24-6.82 4.63-11.33 2.83-.78-.31-1.82-.12-2.72.01-4.47.65-7.84 3.23-10.73 6.47-5.44 6.09-9.15 13.27-12.71 20.53-.44.9-.7 2.09-.53 3.06.36 2.14-.6 3.4-2.15 4.64-4.05 3.22-7.99 6.6-12.03 9.84-.93.75-2.09 1.21-3.14 1.8l.75 1.05c1.42 2.08 2.83 4.16 4.41 6.48-23.87 18.08-47.99 35.05-71.89 53.22 1.66 1.48 2.82 2.51 3.92 3.48 23.89-17.63 47.37-34.96 71.14-52.51 4.89 6.88 9.45 13.3 14.23 20.02-8.62 5.93-16.94 11.53-25.13 17.32-8.05 5.69-16.57 10.76-24.6 17.4 5.1 1.03 8.8-.2 12.35-2.71 9.83-6.94 19.78-13.73 29.68-20.56 3.48-2.4 6.99-4.77 10.43-7.11 4.32 4.1 31.01 41.92 31.86 45.26H894.4c1.02 3.66 3.04 4.87 6.47 4.84 14.63-.11 29.26.01 43.89.01.8 0 1.59-.27 3-.53-12.8-17.74-25.25-34.97-37.64-52.15.44-.7.59-1.2.93-1.43 4.36-3.07 8.71-6.14 13.15-9.09.83-.55 1.98-.79 3.01-.85 7.85-.52 15.23-2.95 22.44-5.79 2.93-1.15 5.66-2.99 8.19-4.91 2.62-1.98 4.68-4.82 4.1-8.22-.64-3.79 1.05-5.83 3.67-8.04 20.09-16.96 41.49-32.02 64.45-44.82 13.97-7.78 28.28-14.95 42.24-22.73 12.16-6.78 23.29-15.03 32.86-25.25 5.89-6.29 10.73-13.24 13.53-21.48 2.17-6.4 2.28-12.89.81-19.39zM906.7 317.02l-19.76-27.21c4.91-4.01 9.55-7.81 14.45-11.81 8.86 7.88 15.08 17.38 20.65 28.14-5.07 3.6-9.95 7.07-15.34 10.88zm26.27-68.5c12.17 8.02 20.38 18.96 24.05 33.16-8.01-11.05-16.03-22.1-24.05-33.16zm129.16-29.68c-.7.21-1.45.26-2.44.41-.52-1.23-1.08-2.27-1.41-3.39-3.16-10.8-8.44-20.49-15.34-29.33-5.28-6.76-11.5-12.54-18.21-17.85-2.53-2-2.46-2.1.43-5.33 19.03 14.07 32.42 31.63 38.26 54.58-.57.42-.89.8-1.29.91zm9.5-5.62c-6.88-22.9-18.93-42.34-39.46-55.89 2.49-3.55 2.62-3.65 5.27-1.8 9.06 6.35 16.86 14 23.04 23.2 6.23 9.28 10.94 19.31 14.22 30 .91 2.97.93 2.97-3.07 4.49zm-761.15-1.28c-25.28-29.37-50.3-58.42-75.59-87.8-1.88 1.64-3.31 2.87-4.69 4.07-1.45-.5-2.83-.98-4.7-1.62.37 2.33.66 4.15 1.03 6.42-1.3-.46-2.11-.79-2.94-1.04-.8-.24-1.62-.4-2.88-.71.39 2.33.69 4.13 1.06 6.33-2.13-.72-3.76-1.28-6-2.04.48 2.39.84 4.17 1.29 6.42-2.26-.54-4.03-.97-6.32-1.52.7 2.33 1.21 4.05 1.9 6.32-2.5-.66-4.28-1.13-6.49-1.71.47 2.34.82 4.1 1.24 6.2-2.21-.58-3.76-.98-5.75-1.5.49 2.31.87 4.1 1.29 6.05l-6.09-1.1c.57 2.26.95 3.8 1.47 5.87-2.23-.49-3.89-.86-6.04-1.34l1.47 6.35c-2.23-.6-3.87-1.04-6-1.62.47 2.27.84 4.07 1.27 6.16-2.11-.46-3.78-.82-5.9-1.28.55 2.3.98 4.06 1.51 6.28-1.42-.42-2.25-.73-3.12-.9-.82-.16-1.67-.16-2.85-.26.48 2.18.87 3.92 1.34 6.06-2.28-.63-3.82-1.06-5.92-1.64.64 2.41 1.14 4.3 1.71 6.45-2.23-.45-3.96-.8-6.3-1.27.7 2.24 1.23 3.95 1.9 6.06-2.37-.42-4.17-.73-6.36-1.12.76 2.4 1.32 4.16 1.99 6.27-2.38-.49-4.09-.84-6.36-1.31.8 2.31 1.4 4.05 2.14 6.2-2.33-.41-4.18-.73-6.55-1.14.81 2.19 1.41 3.8 2.23 5.99-2.36-.35-4.17-.62-6.43-.96.75 2.2 1.35 3.95 2.1 6.14-2.32-.36-4.13-.63-6.34-.97.8 2.34 1.39 4.05 2.12 6.18-2.49-.39-4.16-.65-6.49-1.01.95 2.16 1.59 3.62 2.22 5.05-1.18 1.27-2.29 2.47-3.55 3.82 1.05 1.14 1.73 2.2 2.69 2.87 31.29 21.67 62.62 43.31 94.33 65.22 23.9-26.42 47.56-52.59 71.36-78.92zm479.01 74.12c-1.12 1.47-2.13 3.03-3.31 4.71 4.38-.52 8.11-1.22 11.85-1.34 7.71-.26 15.13 1.59 22.36 4.07 7.33 2.51 14.54 5.37 22.26 8.24 1.05-1.26 2.37-2.69 3.51-4.24 11.97-16.35 23.52-33.02 35.96-49 12.37-15.89 28.47-26.28 48.72-29.86 15.39-2.73 28.19-10.36 38.26-22.37 7.56-9.01 12.55-19.42 15.98-30.57 1.56-5.08 2.56-10.33 3.88-15.49.5-1.97.27-3.65-1.48-4.85-1.83-1.25-3.49-.5-5.03.65-.98.73-1.9 1.53-2.84 2.3-9.65 7.94-19.29 15.88-28.94 23.81-2.86 2.35-5.95 4.17-9.71 4.79-6.63 1.09-12.4-1.22-17.59-4.84-10.59-7.37-18.06-17.18-21.56-29.72-2.65-9.49-1.01-16.6 7.62-22.8 9.15-6.58 17.99-13.59 26.95-20.44 1.33-1.02 2.7-2.02 3.83-3.24 1.95-2.11 1.23-4.79-1.5-5.7-.98-.33-2.1-.28-3.16-.33-10.24-.45-20.41.14-30.5 1.99-10.52 1.94-20.28 5.69-28.38 12.83-10.11 8.9-15.03 20.43-16.34 33.69-1.16 11.82-1.99 23.69-3.82 35.41-3.3 21.11-11.22 40.28-24.7 57.2-14.45 18.09-28.26 36.7-42.32 55.1zm74.78-141.23c10.39 31.47 28.33 56.4 60.2 69.69-3.45.42-4.69.3-8.55-.88-17.23-5.23-30.14-16.1-39.81-30.99-6.54-10.07-10.8-21.07-12.44-33.02-.2-1.49-.27-2.99-.41-4.48.34-.1.68-.21 1.01-.32zm181.18 627.59c-2.96-1.58-5.99-3.02-9.07-4.34-3.68-1.58-6.19-4.19-8.16-7.64-8.63-15.08-17.38-30.08-26.1-45.11-14.68-25.31-29.37-50.61-44.07-75.91-2.24-3.86-2.64-3.99-7.97-2.86 4.93 8.37 9.79 16.57 14.6 24.8 4.77 8.16 9.48 16.35 14.22 24.52 4.81 8.31 9.62 16.61 14.45 24.91 4.75 8.17 9.72 16.21 14.21 24.52 4.48 8.31 9.88 16.12 13.66 24.9-11.29-4.1-21.99-8.93-32.34-15.8 3.43-2.3 6.25-4.19 9.26-6.2-1.15-1.82-2.01-3.17-2.99-4.72-3.43 1.83-6.49 3.45-9.88 5.26-4.27-7.4-8.41-14.59-12.68-22 3.31-2.14 6.33-4.08 9.69-6.26l-3.36-4.6c-3.39 1.78-6.31 3.31-9.66 5.06-4.51-7.71-8.83-15.11-13.24-22.64 3.37-2.06 6.29-3.85 9.47-5.8-1.13-1.86-1.97-3.23-3.01-4.95-3.22 1.74-6.12 3.3-9.53 5.15-4.55-7.78-8.96-15.34-13.51-23.12 3.44-2.25 6.55-4.28 9.92-6.48-1.29-1.79-2.24-3.11-3.41-4.75-3.27 1.8-6.29 3.46-9.67 5.31-.97-1.53-1.89-2.88-2.72-4.28-2.23-3.81-4.35-7.69-6.64-11.47-1.97-3.24-3.44-3.52-7.12-1.56 19.87 34.82 40.41 69.26 59.94 104.39-1.57-.17-2.83-.6-4.02-1.15-31.24-14.48-62.47-28.98-93.72-43.43-4.07-1.88-7.68-4.31-10.76-7.58-1.82-1.94-3.83-3.7-6.07-5.84-1.72 3.23-3.11 5.85-4.59 8.62 1.33.71 2.38 1.32 3.46 1.83 21.4 9.98 42.8 19.97 64.22 29.92 36.61 17.01 73.24 33.99 109.86 50.98 1.24.58 2.51 1.13 3.68 1.83 2.71 1.62 2.9 2.27 1.55 5.13-1.95 4.13-3.9 8.26-5.94 12.35-.57 1.14-1.46 2.13-2.29 3.31-12.84-6.2-25.57-11.51-37.98-17.96 1.83-3.67 3.43-6.89 5.12-10.3-1.68-1.12-3.02-2.01-4.93-3.27l-6.35 10.96c-8.94-4.17-17.57-8.19-26.35-12.28 1.87-3.8 3.46-7.02 5.16-10.47-1.71-1.13-3.07-2.02-4.96-3.26-2.13 3.68-4.14 7.14-6.27 10.82-7.76-3.66-15.31-6.68-22.58-10.62 1.86-3.61 3.44-6.7 5.22-10.15-1.64-1.11-3.07-2.08-4.96-3.35-2.27 3.85-4.3 7.3-6.42 10.89l-23.5-11.06c1.74-3.75 3.25-6.99 4.88-10.49-1.79-1.01-3.18-1.8-4.85-2.75-2.15 3.7-4.1 7.05-6.1 10.49-4.15-1.92-7.91-3.56-11.59-5.38-3.76-1.86-7.85-3.12-11.46-5.71 1.8-3.57 3.42-6.79 5.16-10.25-1.79-1.04-3.3-1.91-5.11-2.96-2.16 3.85-4.06 7.24-5.91 10.55-9.25-3.25-23.88-10.45-26.53-13.07 1.48-3.03 2.98-6.13 4.64-9.53-1.69-1.09-3.17-2.04-5.01-3.22-2.12 3.69-4.06 7.05-6.15 10.68-7.7-3.59-14.99-6.99-22.28-10.4-.66-.31-1.29-.67-2.14-1.12 1.69-3.4 3.29-6.62 5.07-10.19-1.74-1.11-3.19-2.03-5.28-3.36-1.36 3.11-2.96 5.59-3.54 8.29-1.64 7.73-.96 8.8 6.34 12.19 11.75 5.44 23.59 10.7 35.23 16.36 3.63 1.76 7.14 4.17 10.06 6.95 15.46 14.71 30.68 29.68 46.05 44.49 29.09 28.03 58.23 56.01 87.32 84.04 1.49 1.44 2.79 3.09 4.46 4.95l-14.75 15.22c-3.71-3.55-6.94-6.64-10.27-9.82 2.46-2.67 4.49-4.88 7.02-7.63-1.47-1.46-2.72-2.71-4.05-4.02-2.81 2.47-5.07 4.45-7.7 6.76-6.99-6.74-13.84-13.35-21.35-20.59 1.55-1.18 2.84-2.01 3.94-3.05 1.09-1.02 1.98-2.25 3.13-3.59-1.43-1.5-2.65-2.78-3.97-4.16-2.61 2.26-4.97 4.31-7.46 6.46-6.06-5.82-11.86-11.39-17.81-17.11 2.29-2.49 4.32-4.69 6.72-7.29-1.48-1.44-2.76-2.68-4.11-3.99-2.74 2.34-5.12 4.38-7.62 6.52-6.43-6.2-12.53-12.09-18.78-18.1 2.22-2.41 4.15-4.5 6.31-6.85-1.43-1.44-2.65-2.65-4.01-4.01-2.51 2.22-4.63 4.09-6.93 6.13-6.12-5.91-11.99-11.58-18-17.38 2.26-2.6 4.21-4.84 6.35-7.31-1.63-1.49-2.91-2.66-4.24-3.87-2.6 2.29-4.84 4.27-7.22 6.37-7.03-7.17-14.52-13.34-20.87-20.58 2.17-2.5 4.01-4.63 6-6.92-1.7-1.48-2.93-2.55-4.26-3.7-2.5 2.11-4.76 4.01-7.07 5.97-6.59-6.33-12.82-12.31-19.22-18.45 2.26-2.41 4.29-4.58 6.61-7.06-1.52-1.63-2.73-2.94-4.05-4.35-2.78 2.47-5.02 4.46-7.41 6.58-4.92-4.69-9.59-9.14-14.53-13.84-1.84 4.07-1.04 6.77 1.74 9.43 17.19 16.44 34.27 32.97 51.39 49.49 34.66 33.45 69.32 66.91 103.99 100.36 4.72 4.55 9.39 9.16 14.27 13.53 3.3 2.96 4.64 2.85 7.73-.36 4.76-4.93 9.43-9.96 14.01-15.06 3.72-4.15 3.63-4.22.13-8.65-.16-.21-.12-.58-.25-1.26.89-.91 1.9-2.01 2.98-3.05 1.83-1.75 3.22-3.54 2.6-6.4-.21-.97.53-2.29 1.13-3.26.7-1.13 1.73-2.07 2.66-3.15-.72-1.36-1.35-2.53-1.93-3.63 4.17-5.42 3.79-4.86-.72-9.33-3.14-3.11-6.32-6.18-9.5-9.25-14.04-13.55-28.1-27.08-42.13-40.63-3.23-3.12-6.42-6.27-9.63-9.41.14-.21.29-.42.43-.63 1.36.55 2.75 1.04 4.09 1.66 16.16 7.51 32.28 15.14 48.5 22.51 5.23 2.38 9.25 5.68 11.86 10.84 1.5 2.98 3.25 5.88 5.2 8.59 2.54 3.54 4.94 4.13 8.67 2.05 5.32-2.97 10.5-6.19 15.69-9.38 2.56-1.57 3.61-3.79 3.28-6.96-.22-2.18.35-4.48.81-6.68.34-1.63 1.14-3.15 1.63-4.75 1.34-4.21.8-5.66-3.16-7.77zm-20.95 31.06c-3.24-1.98-4.51-5.13-5.23-8.83 3.37 1.65 6.74 3.3 10.9 5.34-2.35 1.43-3.96 2.43-5.67 3.49zM670.11 954.89c-1.43-25.56-2.59-51.14-4.52-76.66-1.34-17.76-3.74-35.43-5.75-53.14-.41-3.63-.57-7.48-1.98-10.74-1.48-3.41-1.6-6.71-1.69-10.2-.11-3.91.65-7.92-1.43-11.65-.35-.63.29-2.02.78-2.87 3.67-6.33 7.41-12.61 11.13-18.9 3.87-6.56 7.71-13.14 11.62-19.67 1.47-2.46 1.66-4.71-.78-7.34-.99 1.53-1.84 2.73-2.58 4-7.25 12.35-14.54 24.68-21.68 37.09-1.45 2.52-2.97 3.79-6.1 3.6-5.01-.32-10.07-.27-15.08.05-3.1.2-4.73-.97-6.11-3.58-2.77-5.25-5.75-10.4-8.75-15.52-1.85-3.16-2.43-3.16-5.64-.41 4.19 7.32 8.41 14.7 12.61 22.05-3.44 4.38-3.29 4.4-4.08 10.26-.85 6.32-2.18 12.58-3.01 18.91-2.18 16.61-4.52 33.21-6.21 49.87-2.56 25.19-3.2 50.49-3.76 75.79-.21 9.3-.22 18.6-.26 27.89-.04 9.25 4.42 15.75 12.79 19.28 3.73 1.57 7.84 2.64 11.87 3.05 11.4 1.16 22.17-.98 31.71-7.67 5.38-3.77 8.06-8.9 7.61-15.65-.39-5.95-.37-11.91-.71-17.84zm-44.72-157.1c.29-1.09 2.14-2.45 3.31-2.5 6.68-.24 13.37-.19 20.05-.03.92.02 2.53 1.17 2.58 1.88.28 4.01.5 8.07-.15 12.02h-26.72c-.68-3.45-.11-7.48.93-11.37zm28.23 139.22c-.21 7.17-6.57 13.35-13.66 13.29-7.28-.06-13.59-6.67-13.39-14.02.19-7.25 6.41-13.2 13.7-13.1 7.65.1 13.57 6.24 13.35 13.83zM261.53 64.4c1.81 1.98 2.7 4.03 1.99 6.62-.92 3.34.48 5.78 2.62 8.24 9.78 11.29 19.42 22.69 29.13 34.04.76.89 1.69 1.63 2.65 2.54 1.53-1.12 2.83-2.08 4.54-3.34 33.79 43.35 67.25 86.67 101.27 130.05 8.96-8.05 17.4-15.62 26.11-23.45-36.97-40.39-73.55-80.36-110.61-120.84 1.73-1.25 3.2-2.31 5.19-3.74-4.26-4.7-7.97-8.72-11.59-12.81-7.27-8.22-14.51-16.46-21.72-24.73-1.69-1.94-3.47-3.37-6.25-2.99-2.78.38-4.55-1.26-6.15-3.22-1.06-1.3-2.17-2.55-3.27-3.82-4.48-5.19-8.93-10.41-13.46-15.55-2.5-2.84-8.78-4.79-11.15-3.24-2.53 1.65-4.79 3.75-7.03 5.8-.58.53-.89 1.61-.92 2.45-.11 4.01.38 7.7 3.47 10.92 5.27 5.49 10.05 11.44 15.18 17.07zm114.49 131.11c6.09 5.02 8.64 12.74 13.92 18.88 5.2-4.27 10.21-8.38 15.51-12.74-4.52-6.48-11.58-10.22-15.06-17.04 7.37 4.38 13 10.66 19.4 16.98-6.93 5.7-13.55 11.15-20.74 17.08-4.83-7.77-9.37-15.06-13.91-22.35.29-.27.59-.54.88-.81zm-124.82-163c1.66-1.46 2.61.73 3.53 1.74 2.95 3.28 5.77 6.66 8.66 9.99 7.46 8.61 14.93 17.22 22.39 25.84.77.89 1.46 1.85 2.19 2.78-.23.13-.45.26-.68.39-5.82-6.19-11.64-12.39-17.48-18.56-5.43-5.74-10.9-11.44-16.36-17.16-.31-.33-.7-.61-.95-.98-.85-1.23-3.19-2.38-1.3-4.04zm53.36 241.94c6.82-6.66 16.56-7.28 24.14-1.47 2.9 2.22 5.51 4.81 8.28 7.19 1.55 1.33 3.17 2.59 4.95 4.05.71-1.27 1.16-1.89 1.43-2.58 3.67-9.45 5.8-19.18 5.86-29.39.02-3.98-1.16-7-4-9.72-8.36-8.02-16.56-16.2-24.87-24.27-5.74-5.58-7.08-5.44-12.5.46-12.37 13.47-24.81 26.88-37.22 40.31-9.2 9.96-18.43 19.91-27.59 29.91-3.89 4.25-3.74 5.77.44 9.34 9.39 8.02 18.83 15.97 28.09 24.14 3.26 2.87 6.72 4.09 10.89 3.17 6.24-1.37 12.51-2.64 18.67-4.33 4.34-1.2 8.52-3.02 12.4-6.04-.96-.9-1.71-1.62-2.47-2.31-3.39-3.07-6.97-5.95-10.15-9.22-6.21-6.39-6.86-15.76-1.71-23.02 1.56-2.23 3.41-4.31 5.36-6.22zm334.62-36.62c3.9-1.29 7.83-2.48 11.78-3.61 2.18-.62 3.25-1.74 3.27-4.18.04-4.72.41-9.43.64-14.14l.69-.01c.37 5.24.73 10.48 1.13 16.06 3.19-.51 6.01-.93 8.82-1.41 2.82-.49 3.2-.91 3.18-3.95-.09-21.63-.21-43.26-.34-64.89-.01-1.18-.2-2.35-.35-4.03-20.66-.07-41.1-1.44-62.04-.87-.01 35.64.67 70.84 3.01 106.17 1.8-1.76 3.24-3.63 4.55-5.59 6.31-9.48 14.87-15.99 25.66-19.55zm148.15-101.24c-5.31 11.11-11.62 21.73-17.23 32.71-6.45 12.61-12.59 25.38-18.84 38.09-.9 1.83-1.87 3.5-4.11 3.9-5.07.91-8.27 4.15-10.81 8.38-5.74 9.53-11.59 18.99-17.37 28.49-.6.99-1.05 2.08-1.89 3.77h22.38c-.43-3.49.32-6.13 3.96-7.25 1.37-.42 1.45-1.78 1-3.09-.65-1.92.41-3.2 1.74-4.34 1.91-1.64 4.05-2.58 6.65-2.58 5.33 0 10.67-.16 16-.2 1.44-.01 2.88.16 4.83.27-2.85 5.68-5.44 10.82-8.01 15.96-.74 1.47-1.73 2.84-.32 4.59 1.42 1.77.66 3.29-1.33 3.84-2.86.78-4.11 2.93-5.25 5.31-1.12 2.33-2.37 4.61-3.38 6.99-1.09 2.58-2.77 3.71-5.65 3.53-3.49-.22-7.01-.13-10.51-.02-1.69.05-3.71-.22-4.73 2.54 5.62 1.3 11.26-.05 17.23 1.08-4.08 8.24-7.96 16.08-12.11 24.48 4.9 2.29 9.53 4.44 14.66 6.83.96-1.87 1.59-3.07 2.2-4.27 8.2-15.95 15.17-32.79 31.82-42.45 2.29-1.33 2.41-3.69.84-6.01-.93-1.37-2.18-2.54-3.31-3.77-1.62-1.76-3.27-3.49-4.81-5.13 7.29-14.42 14.47-28.36 21.42-42.42 4.64-9.4 8.64-19.14 13.49-28.43 8.1-15.53 16.67-30.82 25.01-46.22.54-.99.88-2.1 1.49-3.57-1.65 0-2.7-.05-3.75.01-13.54.79-27.06 1.94-40.61 2.24-5.46.12-8.3 1.73-10.7 6.74zm-11.42 93.31c-.42.76-1.68 1.49-2.56 1.5-7.74.12-15.48.07-23.52.07.18-.79.1-1.76.52-2.07 3.85-2.84 5.73-7.01 7.77-11.09.61-1.22 1.25-2.44 2.96-2.43 7.09.03 14.17.01 22.06.01-2.66 5.21-4.84 9.66-7.23 14.01zm13.32-26.18c-1.56 2.93-2.65 6.78-5.13 8.36-2.31 1.47-6.18.51-9.36.55-4.21.04-8.42.01-13.52.01 3.14-5.75 5.83-10.81 8.69-15.77.44-.77 1.68-1.51 2.56-1.53 6.64-.13 13.28-.07 20.82-.07-1.61 3.36-2.73 5.96-4.06 8.45zm20.6-24.24c-1.78-1.69-3.28-3.11-5.22-4.95-1.12 1.64-2.15 2.88-2.89 4.27a243.49 243.49 0 0 0-5.3 10.6c-1.01 2.15-2.31 3.22-4.89 3.12-5.77-.22-11.56-.08-17.33-.11-.43 0-.86-.17-1.76-.37 1.02-1.98 1.96-3.82 2.92-5.64 1.91-3.63 3.72-7.33 5.83-10.83.69-1.13 2.18-2.45 3.36-2.51 9.53-.49 19.08-.69 29.72-1.01-1.86 3.11-3.07 5.15-4.44 7.43zm6.68-12.1c-.56.96-2.19 1.77-3.35 1.81-9.12.32-18.25.44-27.37.59-.24 0-.49-.32-1.11-.75 1.54-2.98 3-5.79 4.37-8.45-1.73-3.1-4.7-1.33-6.73-2.38.03-3.67.45-4.48 3.24-4.6 12.62-.54 25.24-.97 37.86-1.41.24-.01.49.25 1.09.57-2.64 4.89-5.18 9.84-8 14.62zm-21.36-33.4c13.19-.64 26.37-1.31 40.66-2.03-3.12 5.7-5.71 10.63-8.52 15.44-.51.87-1.87 1.72-2.88 1.77-12.88.61-25.77 1.07-39.52 1.6.93-1.93 1.59-3.35 2.28-4.75 1.54-3.14 3.1-6.26 4.62-9.41.7-1.45 1.57-2.53 3.36-2.62zM551.27 774.99c1.97-1.13 4.13-2.3 5.49-4.02 2.82-3.56 6.57-5.82 10.06-8.5 4.93-3.79 9.86-7.64 14.43-11.85 4.48-4.13 5.86-9.65 4.44-15.5-.85-3.49-2.34-6.93-4.14-10.05-1.93-3.34-4.98-5.6-8.86-6.77-3.33-1-5.63-.18-8.06 2.31-8.4 8.6-16.74 17.3-25.68 25.33-13.51 12.14-28.11 22.84-44.62 30.72-7.01 3.34-13.96 6.8-20.9 10.27-6.29 3.15-11.08 7.94-14.8 13.87-.62.99-1.36 1.89-2.08 2.81-.41 1.43-.77 2.88-1.18 4.32-1.05 3.66-2.84 7.01-4.25 10.52-.63 2.04-1.1 4.09-.84 6.18.26.89.66 1.75 1.08 2.62.41.83.82 1.5 1.54 2.09.39.32.73.64.95 1.04 3.49 2.5 6.94 1.84 10.33-.3 1.8-1.13 3.54-2.37 5.21-3.7 17.06-13.62 35.18-25.6 54.45-35.89 9.27-4.95 18.33-10.26 27.43-15.5zM405.05 366.3c.2 1.79.84 3.24 3.06 3.23 7.28-.02 14.57-.01 21.85-.01.23-.32.45-.64.68-.96-2.29-3.32-4.87-6.45-7.43-9.58-13.63-16.67-29.43-30.35-50.25-37.42-6.81-2.31-12.3-6.78-16.48-12.58-4-5.55-7.47-11.48-11.36-17.11-1.79-2.59-3.74-5.24-6.14-7.23-4.09-3.39-8.62-6.27-12.93-9.4-2.57-1.87-5.42-2.59-8.57-2.66-6.13-.12-10.33 3.15-13.82 7.65-5.38 6.94-5.08 16 1.35 21.95 7.78 7.2 14.96 15.29 25.32 19.18 1.83.69 3.45 1.93 5.13 2.98 8.71 5.44 15.8 12.21 19.71 22.07 3.12 7.89 8.46 14.39 14.44 20.37 1.84 1.84 3.79 2.85 6.46 2.72 3.04-.15 6.1-.11 9.14.05 2.36.13 3.67-.8 4.37-3.04 1.68-5.37 3.49-10.7 5.24-16.05.57-1.74.84-3.63 1.74-5.17.68-1.18 2.06-2.54 3.27-2.68 1.84-.22 2.92 1.46 3.17 3.26.37 2.71.56 5.44.83 8.16.4 4.1.77 8.19 1.22 12.27zm25.51 470.79c-.31-1.02-.68-2.03-1.11-3-3.01-6.88-8.64-12.44-15.19-16.1 2.52-5.54 6.81-10.04 10.29-15.04 3.48-5 6.23-11.07 5.01-17.03L417 794.16c-2.02 1.33-4.12 2.68-6.5 3.09-2.67.46-5.25-1.24-7.72-.85-2.32.36-3.72 3.73-4.9 5.46-3.77 5.49-7.53 10.98-11.3 16.47-4.98 7.26-10.12 14.91-11.12 23.66-.41 3.54-.07 7.15.92 10.57-.01-.02-.01-.03-.02-.05-.01-.01-.01-.02-.02-.03.09.29.19.58.29.86.31.96.67 1.91 1.09 2.84.08.18.15.36.23.53-.02-.05-.04-.11-.06-.16 1.34 2.89 3.18 5.56 5.45 7.8 2.78 2.75 6.44 5.44 6.54 9.35.08 2.88-1.88 5.38-3.76 7.57-1.95 2.27-4 4.57-6.67 5.91-1.59.8-3.38 1.25-4.78 2.34-1.17.91-1.99 2.19-2.78 3.45-7.21 11.45-14.43 22.9-21.64 34.36-.79 1.26-1.48 3.15-.27 4.01 1.04.74 2.43-.09 3.42-.89 17.12-14.01 31.96-30.75 49.9-43.69 2.86-2.06 5.8-4.03 8.32-6.5 2.46-2.4 4.47-5.22 6.46-8.02l7.59-10.68c1.3-1.83 2.61-3.67 3.62-5.68 2.88-5.74 3.15-12.61 1.27-18.79zM616.3 342.54c-27.15 3.03-72.71 18.71-79.95 27.9h207.47c-30.15-19.82-77.48-33.49-127.52-27.9zM827.47 805.5c-2.52-5.88-4.97-11.79-7.55-17.64-1.94-4.39-3.06-4.74-7.79-4.11-2.02.27-4.28.07-6.21-.57-4.69-1.57-7.34-5.16-8.68-9.86-2.38-8.34-4.78-16.68-7.3-24.99-.88-2.9-1.52-5.72.2-9.24-1.23.73-1.78.97-2.24 1.34-3.7 2.9-3.79 3.2-2.45 7.68.58 1.95 1.16 3.9 2 6.7-3.05-2.86-2.75-6.82-5.87-8.43-2.7 1.35-1.54 3.08-.76 4.67 2.82 5.74 5.69 11.46 8.54 17.19 2.27 4.57 4.54 9.14 6.81 13.72-4-2.02-7.42-.87-10.95 1.43-5.64-8.87-11.07-17.42-16.66-26.2-2.91 2.14-1.92 3.71-.9 5.32 3.6 5.65 6.7 11.72 10.92 16.87 4.67 5.71 4.14 11.37 1.96 17.49-.66 1.86-1.27 3.84-2.39 5.42-2.54 3.6-1.9 6.86-.21 10.65 14.29 32.15 28.43 64.37 42.58 96.58 7.29 16.59 14.59 33.18 21.75 49.83 2.84 6.6 7.85 11.38 12.46 16.62 4.53-2.51 8.7-4.71 12.75-7.09 4.06-2.38 8.17-4.73 11.95-7.51 3.74-2.76 9.1-2.58 12.02-6.69-5.43-12.57-10.84-24.99-16.18-37.45-15.94-37.23-31.86-74.48-47.8-111.73zm-9.9-12.19c5.73 13.28 11.39 26.59 17.08 39.88 3.77 8.82 7.55 17.63 11.31 26.45.58 1.35 1.09 2.74.82 4.45-3.76-8.31-7.53-16.61-11.27-24.93-3.81-8.47-7.57-16.96-11.36-25.44-3.76-8.38-7.67-16.69-10.71-25.41 2.79.69 3.28 3.04 4.13 5zm-26.07 32.96c-2.73-6.28-5.38-12.6-8.25-18.82-1.02-2.22-1.2-4.13-.39-6.49 1.28-3.72 2.06-7.61 3.05-11.44.98-3.77 3.46-5.29 7.09-4.11 3.04.99 5.98 2.25 8.99 3.33 2.34.84 3.58 2.58 4.56 4.78 6.47 14.45 13.02 28.86 19.54 43.28 11.61 25.66 23.23 51.31 34.82 76.97 3.82 8.45 7.58 16.93 11.71 26.18-8.4 4.99-16.47 9.79-24.86 14.77-.75-1.25-1.46-2.19-1.92-3.25-18.11-41.71-36.22-83.46-54.34-125.2zm88.98 119.81c1.7 1.94 3.24 4.03 4.82 6.07.36.47.61 1.03 1.24 2.11-10.26 5.68-20.4 11.3-31.2 17.28l-8.24-10.19c1.59-1.37 2.69-2.6 4.03-3.43 7.26-4.44 14.55-8.83 21.9-13.13 3.56-2.08 4.71-1.84 7.45 1.29zM579.16 773.4c-14.72-.01-14.69.04-27.42 7.52-2.56 1.5-4.03 3.44-4.86 6.25-8.1 27.45-16.3 54.88-24.42 82.32-.47 1.59-.76 3.29-.76 4.94-.01 14.02.07 28.04.1 42.05 0 1.78.24 3.36 2.23 4.02 2 .66 3.93.82 5.46-.95.79-.91 1.46-1.95 2.1-2.98 8.65-13.82 17.34-27.61 25.87-41.49 1.57-2.56 2.84-5.41 3.71-8.28 6.06-20.11 11.99-40.26 17.95-60.4 3.15-10.63 6.28-21.27 9.75-33.01-3.73.01-6.72.01-9.71.01zm-41.31 127.27c-2.22-.52-4.23-1.4-6.2-1.33-2 .07-3.97 1.07-6.61 1.85-.58-8.74-.37-17.34-.67-26.15 4.77-1.71 9.02-3.33 13.35-4.72 1.41-.45 3.02-.49 4.51-.4 3.64.22 5.44 2 5.98 5.67.15 1.05.04 2.16.31 3.17.22.79.85 1.46 1.47 2.46-4.01 6.44-8.1 12.99-12.14 19.45zm-147.2-639.24c-4.23 4.74-7.77 10.14-11.34 15.43-2.36 3.5-1.98 6.65 1.11 10.18 18.19 20.73 36.09 41.71 54.11 62.58 3.45 4 7.01 7.91 10.52 11.86.31-.16.61-.32.92-.48-.92-4.46-1.62-8.97-2.85-13.34-.67-2.4-1.92-4.8-3.47-6.76-2.73-3.46-5.9-6.57-8.87-9.84-10.44-11.51-20.86-23.04-31.32-34.53-2.3-2.53-3.8-5.25-2.35-8.67.58-1.37 1.58-2.59 2.54-3.75 14.9-18.05 31.75-34.12 50.21-48.48 7.57-5.89 15.42-11.43 23.29-16.92 4.37-3.05 7.13-2.55 10.82 1.36 1.25 1.33 2.37 2.78 3.5 4.21 11.14 14.11 22.26 28.24 33.41 42.35 1.08 1.36 2.3 2.61 3.6 4.07 2.31-2.83 4.21-5.15 6.28-7.67-3.84-4.5-7.59-8.89-11.34-13.28-13.45-15.76-26.98-31.47-40.31-47.34-2.91-3.46-6.05-4.54-9.99-2.66-5.76 2.75-11.72 5.27-17.03 8.74-22.8 14.91-43.3 32.6-61.44 52.94zm287.52 406.48c20.17-3.54 57.43-17.72 62.64-24.13H538.6c-.07.33-.13.66-.2 1 43.81 24.31 90.41 31.79 139.77 23.13zm77.8 244.96c-8.81-39.68-17.62-79.37-26.41-119.06-.42-1.89-1.07-3.63-2.99-4.27-2.5-.84-2.87-2.89-3.33-4.98-1.55-7.14-3.09-14.28-4.67-21.42-.22-.97-.67-1.89-1.17-3.23-5.85 3.02-11.37 5.88-17.16 8.87.12 1.26.11 2.03.27 2.75 1.34 5.78 2.7 11.56 4.09 17.33.44 1.8 1.06 3.65-.48 5.16-1.81 1.78-1.56 3.82-1.07 5.95.81 3.56 1.64 7.12 2.44 10.69 7.32 32.69 14.62 65.39 21.94 98.08 1.2 5.35 2.25 10.74 3.73 16.01 1.5 5.37 4.79 7.49 10.28 6.75 3.45-.47 6.92-1.21 10.23-2.3 4.58-1.51 6.59-5.3 5.73-10.09-.36-2.1-.96-4.16-1.43-6.24zm-14.77-2.06c-.19 2.18-1.46 3.67-3.57 4.25-2.18.59-3.94-.22-4.99-2.19-.56-1.06-.91-2.26-1.16-3.44-2.43-11.31-4.82-22.62-7.19-33.94-.25-1.19-.34-2.41-.46-3.3.04-2.71 1.77-4.88 3.91-5.24 1.92-.32 4.06 1.04 4.93 3.25.33.84.49 1.76.67 2.65 2.48 11.76 4.95 23.53 7.41 35.29.2.88.53 1.8.45 2.67zM403.64 777.92c-1.33 2.78-2.72 5.61-3.06 8.67-.34 3.06.6 6.47 3.12 8.23 4.05 2.83 9.57.27 13.73-2.39 7.09-4.53 14.19-9.56 18.67-16.68 5.32-8.44 6.34-18.78 8.18-28.58 4.28-22.75 13.61-44.25 24.15-64.86-.52.2-1.04.4-1.56.59-9.43 3.4-19.68 4.51-29.61 3.19-1.28-.17-2.7-.35-3.75.4-.95.67-1.31 1.88-1.6 3 0 7.15-4.33 16.32-6.18 23.26-1.9 7.17-3.58 14.41-5.61 21.54a276.798 276.798 0 0 1-16.48 43.63zm160.89-620.43c-1.48-5.9-2.88-11.83-4.18-17.78-.43-1.99-1.41-3.29-3.26-4.05-3.08-1.26-6.15-2.55-9.56-3.96-2.05 2.22-4.06 4.46-6.14 6.63-1.99 2.07-2.46 4.47-1.8 7.17.86 3.55 1.51 7.18 2.67 10.63 1.74 5.17 3.72 10.27 5.88 15.27.77 1.79.83 3.35.7 5.23-.24 3.29-.25 6.67.26 9.91.79 5.1 2.02 10.15 3.2 15.19 1.66 7.1 2.99 14.32 7.09 20.61.59.9.86 2.45.51 3.43-1.73 4.85.01 9.31 1.25 13.84.16.57.76 1.02 1.18 1.55.48-.45.87-.65.88-.85.03-.9.16-1.86-.12-2.69-2.16-6.49-1.84-12.84.72-19.15.28-.69.17-1.52.38-2.24 1.07-3.73 2.18-7.45 3.27-11.18-.35 2.22-.6 4.47-1.23 6.61-1.83 6.25-2.66 12.47-.32 18.75.95 2.54 2.01 5.03 3.01 7.49.65.04 1.11.11 1.55.08 4.63-.38 5.59.65 3.84 5.01-1.58 3.93-3.27 7.97-5.74 11.35-2.57 3.51-3.19 6.66-1.21 10.44.49.94.64 2.08 1.24 2.93 2.3 3.31 3.09 6.62 1.85 10.72-1.06 3.52.3 5.63 3.4 7.43 0-.69.17-1.33-.03-1.85-1.74-4.65-1.21-9.24.05-13.9 1.59-5.87 2.99-11.79 4.45-17.69.78-3.15 1.53-6.3 2.4-9.94 4.35 8.48 5.51 18.82 2.88 23.24-2.17-3.5-1.3-8.18-4.18-12.13-1.21 4.62-2.06 8.58-3.3 12.43-1.23 3.82-.93 7.41.31 11.14 1.22 3.66 2.08 7.45 3.3 11.95 4.44 2.18 8.76-1.3 13.86-2.47-.82-5.47-2.04-10.62-5.44-14.88-1.89-2.37-2.69-4.51-1.58-7.47 1.21-3.22.92-6.53.03-9.87-2.16-8.08-4.01-16.25-6.27-24.31-.81-2.87-2.13-5.72-3.79-8.2-1.51-2.26-2.1-4.31-1.13-6.8 1.34-3.43.9-6.82.01-10.29-1.51-5.89-2.77-11.85-4.24-17.76-1.29-5.21-2.97-10.28-6.78-14.27-1.5-1.57-1.5-3.08-.87-4.99 1.09-3.33 1.9-6.72 1-10.31zm-21.07-10.22c-2.41-3.54-2.18-4.84 1.9-8.62-.76 3.44-1.29 5.88-1.9 8.62zm24.24 56.94 1.41-9.15c.41.02.82.04 1.23.05 1.94 8.79 6.33 17.39 1.5 25.89-.46-3.43-.83-7.69-1.67-11.84-.35-1.74-1.6-3.29-2.48-4.92 0-.01.01-.02.01-.03zm-13.69-7.22c-1.6-8.23-5.01-15.19-2.47-22.88.35-.06.71-.11 1.06-.17.41 1.4.84 2.79 1.22 4.19.31 1.17.26 2.57.89 3.52 3.25 4.87 1.53 9.54-.7 15.34zm7.39-28.03c-1.69-6.1-3.37-11.23-4.44-16.48-.41-2.02.53-4.32.85-6.5.43-.02.87-.04 1.3-.07 1.27 4.92 2.86 9.8 3.66 14.8.37 2.35-.77 4.95-1.37 8.25zM367.5 883.48c.18-.65 0-1.33-.05-2-.16-1.9.71-3.72 1.55-5.44 1.18-2.41 2.38-4.84 4.07-6.93 1.69-2.09 3.94-3.83 6.56-4.41.45-.1 1.03-.31 1-.77-.01-.17-.11-.32-.21-.46-.58-.82-1.13-1.66-1.63-2.53-1.9-3.23-3.3-6.75-4.17-10.4-1.16-4.9-.69-9.41-.65-14.33-3.55 1.31-6.66 8.41-8.26 11.67-2.22 4.53-3.97 9.27-5.97 13.89-3.72 8.61-8.33 16.79-12.8 25.03-4.86 8.95-9.56 17.99-14.25 27.03-.42.81-.85 1.67-.85 2.58.01.91.61 1.9 1.52 2 .86.1 1.59-.58 2.19-1.2l30.96-32.27c.39-.42.83-.88.99-1.46zm469.37-224.44c-8.94-5.1-17.4-2.78-25.81 3.55-3.21 2.42-2.71 4.7.9 6.4 7 3.31 14.04 6.57 21.07 9.83 5.35 2.48 10.72 4.92 17.01 7.8.12-3.49.27-6.04.28-8.59.01-1.97.18-4.03-.32-5.89-.49-1.83-1.34-3.87-2.7-5.09-3.26-2.92-6.65-5.85-10.43-8.01zM450.79 828.56c-1.18-1.69-1.95-3.71-1.95-5.77.01-2.86 1.46-5.48 2.67-8.07.18-.38.35-.75.51-1.13 1.28-2.92 2.3-5.96 3.04-9.06.06-.27.12-.56-.01-.8-.18-.34-.64-.39-1.02-.39-5.71 0-8.76 3.7-12.27 7.6-3.95 4.38-7.89 8.76-11.84 13.15-.61.67-1.23 1.37-1.54 2.23-.75 2.1.59 4.3 1.64 6.27 3.65 6.81 4.22 15.2 1.54 22.45 1.13-.21 1.99-1.12 2.75-1.98L450.38 835c.97-1.09 2-2.38 1.81-3.83-.14-1-.83-1.8-1.4-2.61zm316.12-90.91c-3.89 2.28-7.36 4.32-11.25 6.6-1.47-2.82-2.9-5.56-4.45-8.55 1.63-1.36 2.87-2.76 4.41-3.62 3.58-1.99 7.28-3.75 10.97-5.53 2.73-1.31 2.92-2.13.72-5.38-3.38 1.59-6.9 3.03-10.22 4.86-3.23 1.79-6.24 3.97-9.45 6.04-1.34-2.34-.01-3.26 1.13-4.24 4.23-3.6 9.09-6.07 14.28-7.97 1.49-.54 2.91-1.27 4.6-2.02-.76-1.44-1.18-2.41-1.75-3.27-3.57-5.41-4.63-5.77-10.42-2.87-3.65 1.83-7.15 3.96-11.16 6.21-1.18-2.13-2.35-4.21-3.5-6.29-1.77-3.19-2.69-3.33-6.06-.59 1.19 2.19 2.39 4.45 3.65 6.68 2.16 3.85 4.44 7.62 4.75 12.22.08 1.13.64 2.46 1.42 3.28 4.18 4.43 6.34 9.97 8.87 15.33 1.98 4.19 4.53 5.44 9.41 4.85.86-2.43 1.69-4.81 2.54-7.19.91-2.52 2.11-4.99 1.51-8.55zM657.36 272.9v-.03c-.06-.05-.11-.11-.17-.16l.17.19zm-258.02 73.81c-2.72 7.63-5.44 15.27-8.37 23.51h12.38c-1.08-8.08-2.1-15.74-3.12-23.4-.3-.04-.6-.08-.89-.11zm635.78 436.37c.07-2.88-2.29-5.36-5.08-5.34-2.65.01-5.01 2.56-5.07 5.46-.05 2.55 2.32 4.75 5.1 4.73 2.69-.03 4.99-2.23 5.05-4.85z" />
</svg>